<svg fill="none" viewBox="0 0 96 96" xmlns="http://www.w3.org/2000/svg">
    <mask x="0" y="0" width="96" height="96">
        <path d="m48.04 0c-26.565 0-48.04 22-48.04 49.217 0 21.756 13.76 40.172 32.848 46.69 2.3866 0.49 3.2607-1.059 3.2607-2.362 0-1.141-0.0786-5.052-0.0786-9.1269-13.364 2.9339-16.146-5.867-16.146-5.867-2.1476-5.704-5.3297-7.17-5.3297-7.17-4.3739-3.015 0.3186-3.015 0.3186-3.015 4.8518 0.326 7.3976 5.052 7.3976 5.052 4.2942 7.496 11.214 5.378 13.998 4.074 0.3973-3.178 1.6707-5.378 3.0228-6.6-10.658-1.141-21.872-5.378-21.872-24.283 0-5.378 1.9077-9.778 4.9305-13.2-0.4769-1.222-2.1476-6.275 0.4779-13.038 0 0 4.0562-1.304 13.202 5.052 3.9157-1.0773 7.9539-1.6254 12.01-1.63 4.0563 0 8.1912 0.571 12.01 1.63 9.1469-6.356 13.203-5.052 13.203-5.052 2.6255 6.763 0.9538 11.816 0.4769 13.038 3.1024 3.4219 4.9314 7.8219 4.9314 13.2 0 18.905-11.214 23.06-21.952 24.283 1.7503 1.548 3.2607 4.481 3.2607 9.126 0 6.5999-0.0787 11.897-0.0787 13.526 0 1.304 0.8752 2.853 3.2608 2.364 19.088-6.52 32.848-24.935 32.848-46.691 0.0787-27.217-21.475-49.217-47.96-49.217z"
              clip-rule="evenodd" fill="#24292F" fill-rule="evenodd"/>
    </mask>
    <g mask="url(#mask0_2_31)">
        <path d="m1.1772 59.068c-0.21596-0.9118 0.87186-1.4877 1.5358-0.8238l35.042 35.034c0.6639 0.6639 0.088 1.7517-0.8238 1.5358-8.6908-2.0544-16.638-6.4869-22.953-12.802-6.3147-6.3146-10.747-14.262-12.802-22.953v8e-3zm-1.1758-14.046c-0.0073766 0.1343 0.013758 0.2685 0.062012 0.394 0.048253 0.1254 0.12253 0.2392 0.21794 0.3339l49.968 49.968c0.0947 0.0954 0.2085 0.1697 0.3339 0.218 0.1255 0.0482 0.2597 0.0693 0.394 0.062 2.2796-0.144 4.5112-0.44 6.6869-0.8879 0.1652-0.0358 0.3176-0.1157 0.441-0.2311 0.1234-0.1155 0.2133-0.2622 0.26-0.4246 0.0468-0.1624 0.0487-0.3344 0.0055-0.4978-0.0431-0.1634-0.1297-0.3121-0.2506-0.4302l-55.639-55.647c-0.11815-0.1209-0.26682-0.2075-0.43022-0.2506-0.1634-0.0432-0.33543-0.0413-0.49784 0.0055-0.1624 0.0467-0.30912 0.1366-0.42456 0.26-0.11545 0.1234-0.19532 0.2758-0.23114 0.441-0.44956 2.2056-0.74357 4.4401-0.87986 6.6869h-0.015998zm4.0394-16.493c-0.07689 0.1757-0.09894 0.3705-0.06326 0.5589s0.12743 0.3616 0.26323 0.497l62.174 62.174c0.1348 0.1368 0.3081 0.2292 0.4967 0.2649 0.1887 0.0358 0.3837 0.0131 0.5592-0.0649 1.7197-0.7679 3.3754-1.6237 4.9832-2.5756 0.1231-0.0742 0.2276-0.1756 0.3056-0.2964 0.078-0.1207 0.1273-0.2577 0.1443-0.4004 0.017-0.1428 0.0011-0.2875-0.0464-0.4232-0.0474-0.1357-0.1253-0.2587-0.2275-0.3598l-64.534-64.534c-0.10103-0.1022-0.22408-0.1801-0.35976-0.2275-0.13569-0.0475-0.28042-0.0634-0.42317-0.0464-0.14274 0.017-0.27972 0.0663-0.40049 0.1443-0.12076 0.078-0.22213 0.1825-0.29635 0.3056-0.95185 1.5998-1.8077 3.2635-2.5756 4.9832zm8.1107-11.166c-0.1732-0.1704-0.274-0.4011-0.2814-0.6439-0.0075-0.2429 0.079-0.4792 0.2414-0.6599 4.3532-4.8795 9.6566-8.8188 15.586-11.577 5.9289-2.758 12.358-4.2766 18.895-4.4628 6.5364-0.18615 13.042 0.96406 19.118 3.3802 6.0763 2.4161 11.595 6.0473 16.219 10.671 4.6238 4.6238 8.2549 10.143 10.671 16.219 2.4162 6.0762 3.5664 12.582 3.3802 19.118-0.1861 6.5364-1.7047 12.966-4.4627 18.895-2.758 5.929-6.6974 11.232-11.577 15.586-0.1807 0.1624-0.417 0.2489-0.6599 0.2414-0.2428-0.0074-0.4735-0.1082-0.6439-0.2814l-66.486-66.486z"
              fill="#5E6AD2"/>
    </g>
</svg>
