<?xml version="1.0" encoding="UTF-8"?>
<svg fill="none" viewBox="0 0 128 128" xmlns="http://www.w3.org/2000/svg">
    <mask id="a" x="16" y="16" width="96" height="96" style="mask-type:alpha" maskUnits="userSpaceOnUse">
        <path d="m64.04 16c-26.565 0-48.04 22-48.04 49.217 0 21.756 13.76 40.172 32.848 46.69 2.3866 0.49 3.2607-1.059 3.2607-2.362 0-1.141-0.0786-5.052-0.0786-9.127-13.364 2.934-16.146-5.8673-16.146-5.8673-2.1476-5.704-5.3297-7.17-5.3297-7.17-4.3739-3.015 0.3186-3.015 0.3186-3.015 4.8518 0.326 7.3976 5.052 7.3976 5.052 4.2942 7.496 11.214 5.378 13.998 4.074 0.3973-3.178 1.6707-5.378 3.0228-6.6-10.658-1.141-21.872-5.378-21.872-24.283 0-5.378 1.9077-9.778 4.9305-13.2-0.4769-1.222-2.1476-6.275 0.4779-13.038 0 0 4.0562-1.304 13.202 5.052 3.9157-1.0773 7.9539-1.6254 12.01-1.63 4.0563 0 8.1912 0.571 12.01 1.63 9.1469-6.356 13.203-5.052 13.203-5.052 2.6255 6.763 0.9538 11.816 0.4769 13.038 3.1024 3.4219 4.9314 7.8219 4.9314 13.2 0 18.905-11.214 23.06-21.952 24.283 1.7503 1.548 3.2607 4.481 3.2607 9.126 0 6.6003-0.0787 11.897-0.0787 13.526 0 1.304 0.8752 2.853 3.2608 2.364 19.088-6.52 32.848-24.935 32.848-46.691 0.078-27.217-21.475-49.217-47.96-49.217z" clip-rule="evenodd" fill="#24292F" fill-rule="evenodd"/>
    </mask>
    <g mask="url(#a)">
        <path d="m17.177 75.068c-0.216-0.9118 0.8718-1.4877 1.5357-0.8238l35.042 35.034c0.6639 0.664 0.088 1.752-0.8238 1.536-8.6908-2.055-16.638-6.487-22.953-12.802-6.3147-6.3146-10.747-14.262-12.802-22.953v8e-3zm-1.1759-14.046c-0.0073 0.1343 0.0138 0.2685 0.062 0.394 0.0483 0.1254 0.1226 0.2392 0.218 0.3339l49.968 49.969c0.0947 0.095 0.2085 0.169 0.3339 0.218 0.1255 0.048 0.2597 0.069 0.394 0.062 2.2796-0.144 4.5113-0.44 6.6869-0.888 0.1652-0.036 0.3176-0.116 0.441-0.231 0.1234-0.116 0.2133-0.263 0.26-0.425 0.0468-0.162 0.0487-0.334 0.0055-0.498-0.0431-0.163-0.1297-0.312-0.2506-0.43l-55.639-55.647c-0.1181-0.1209-0.2668-0.2075-0.4302-0.2506-0.1634-0.0432-0.3354-0.0413-0.4978 0.0055-0.1624 0.0467-0.3091 0.1366-0.4246 0.26-0.1154 0.1234-0.1953 0.2758-0.2311 0.441-0.4496 2.2056-0.7436 4.4401-0.8799 6.6869h-0.016zm4.0394-16.493c-0.0769 0.1757-0.0989 0.3705-0.0633 0.5589 0.0357 0.1884 0.1275 0.3616 0.2633 0.497l62.174 62.174c0.1348 0.137 0.3081 0.229 0.4967 0.265 0.1887 0.036 0.3837 0.013 0.5592-0.065 1.7197-0.768 3.3754-1.624 4.9832-2.575 0.1231-0.075 0.2276-0.176 0.3056-0.297s0.1273-0.258 0.1443-0.4c0.017-0.143 0.0011-0.288-0.0463-0.423-0.0475-0.136-0.1254-0.259-0.2276-0.36l-64.534-64.534c-0.1011-0.1022-0.2241-0.1801-0.3598-0.2275-0.1357-0.0475-0.2804-0.0634-0.4232-0.0464-0.1427 0.017-0.2797 0.0663-0.4004 0.1443-0.1208 0.078-0.2222 0.1825-0.2964 0.3056-0.9519 1.5998-1.8077 3.2635-2.5756 4.9832zm8.1107-11.166c-0.1732-0.1704-0.274-0.4011-0.2814-0.6439-0.0075-0.2429 0.079-0.4792 0.2414-0.6599 4.3532-4.8795 9.6566-8.8188 15.586-11.577 5.9289-2.758 12.358-4.2766 18.895-4.4627 6.5364-0.1862 13.042 0.964 19.118 3.3802 6.0763 2.4161 11.595 6.0472 16.219 10.671 4.6237 4.6238 8.2547 10.143 10.671 16.219 2.416 6.0762 3.567 12.582 3.381 19.118-0.187 6.5364-1.705 12.966-4.463 18.895-2.758 5.929-6.698 11.232-11.577 15.586-0.1807 0.1625-0.417 0.2485-0.6599 0.2415-0.2428-8e-3 -0.4735-0.108-0.6439-0.2815l-66.486-66.486z" fill="#5E6AD2"/>
    </g>
</svg>
